<svg width="250" height="250" viewBox="0 0 250 250" fill="none" xmlns="http://www.w3.org/2000/svg">
<!-- <path fill-rule="evenodd" clip-rule="evenodd" d="M125.088 8.7735L26 67.1367V183.863L125.088 242.227L225.176 183.863V67.1367L125.088 8.7735ZM230.176 64.25L125.088 3L21 64.25V186.75L125.088 248L230.176 186.75V64.25Z" fill="#00CCE8"/> -->
<path d="M126.307 128.293L34 181.587V70.422L126.307 17.1285L126.307 128.293Z" fill="#00CCE8"/>
<path d="M217.307 70.422L125 17.1286V128.293L217.307 181.587L217.307 70.422Z" fill="#00CCE8"/>
<rect width="106.078" height="106.078" transform="matrix(0.866025 0.5 -0.866025 0.5 125.588 128)" fill="#00A8BF"/>
<rect width="106.078" height="106.078" transform="matrix(0.866025 0.5 -0.866025 0.5 125.588 17)" fill="#00A8BF"/>
<path d="M124.992 191L124.992 122.839L70 91.0892V159.25L124.992 191Z" fill="#3FE8FF"/>
<path d="M179.99 159.25L125 190.999V122.774L179.99 91.0256L179.99 159.25Z" fill="#3FE8FF"/>
<rect width="63.1944" height="63.1944" transform="matrix(0.866025 0.5 -0.866025 0.5 125 59.6)" fill="#00CCE8"/>
</svg>
